<?xml version="1.0" standalone="no"?>
<!DOCTYPE svg PUBLIC "-//W3C//DTD SVG 20010904//EN"
 "http://www.w3.org/TR/2001/REC-SVG-20010904/DTD/svg10.dtd">
<svg version="1.0" xmlns="http://www.w3.org/2000/svg"
 width="683.000000pt" height="633.000000pt" viewBox="0 0 683.000000 633.000000"
 preserveAspectRatio="xMidYMid meet">

<g transform="translate(0.000000,633.000000) scale(0.100000,-0.100000)"
fill="#000000" stroke="none">
<path d="M3140 6083 c-516 -51 -968 -210 -1377 -483 -1046 -695 -1536 -1951
-1237 -3169 84 -340 271 -740 476 -1018 55 -73 78 -96 78 -77 0 3 -20 31 -44
63 -224 290 -410 690 -502 1077 -64 270 -91 659 -65 929 82 848 497 1582 1185
2099 322 242 735 425 1148 510 325 67 740 77 1068 25 444 -70 907 -262 1261
-525 689 -511 1106 -1234 1195 -2072 21 -196 14 -530 -16 -726 -69 -459 -239
-877 -514 -1270 -42 -60 -74 -111 -71 -114 3 -3 12 3 20 14 288 381 472 785
559 1230 43 223 51 306 50 574 0 191 -4 285 -18 375 -53 362 -144 655 -296
955 -227 446 -585 846 -1010 1126 -402 266 -845 422 -1342 474 -89 9 -466 12
-548 3z"/>
<path d="M2674 5290 c-543 -62 -1023 -410 -1274 -925 -73 -150 -112 -260 -144
-412 -82 -390 -44 -777 116 -1154 97 -230 228 -421 422 -614 239 -238 506
-402 828 -508 700 -232 1444 -114 2115 335 102 69 133 95 97 84 -45 -13 -260
-46 -378 -57 -158 -15 -495 -6 -646 16 -360 52 -652 144 -963 303 -532 270
-881 630 -1031 1061 -121 348 -111 681 29 966 33 67 78 138 113 181 213 254
564 354 821 233 122 -56 195 -135 226 -244 19 -65 16 -135 -9 -184 -15 -29
-15 -30 12 -35 38 -9 129 10 182 37 106 54 163 202 130 342 -6 28 -6 42 3 47
32 21 167 -3 226 -40 53 -32 104 -89 148 -165 47 -82 72 -99 113 -77 73 39 64
235 -17 363 -128 204 -398 368 -704 428 -114 22 -313 31 -415 19z"/>
<path d="M2454 4695 c-265 -72 -471 -298 -546 -601 -28 -115 -30 -338 -4 -457
57 -259 176 -471 385 -689 396 -412 983 -691 1636 -779 213 -28 531 -31 730
-6 230 30 230 33 4 29 -228 -5 -373 5 -564 39 -720 128 -1367 531 -1668 1038
-129 216 -192 484 -168 702 26 232 108 406 257 550 74 70 132 108 221 145 l56
22 -39 11 c-54 15 -238 13 -300 -4z"/>
<path d="M423 1126 c-164 -53 -252 -219 -223 -422 13 -95 42 -157 103 -216 83
-82 225 -108 359 -68 81 24 172 121 200 213 7 23 13 87 12 142 -1 120 -23 189
-85 258 -60 69 -133 100 -238 104 -53 2 -102 -2 -128 -11z m195 -130 c34 -18
64 -51 88 -96 29 -55 27 -210 -4 -273 -32 -64 -88 -97 -166 -97 -126 0 -189
79 -190 241 0 107 31 182 91 217 45 26 139 30 181 8z"/>
<path d="M3460 770 l0 -362 183 5 c199 5 232 12 303 60 94 63 139 163 137 307
-1 155 -63 260 -186 316 -60 27 -69 28 -249 32 l-188 4 0 -362z m363 216 c73
-31 109 -102 109 -216 0 -167 -64 -230 -232 -230 l-90 0 0 236 0 237 90 -6
c50 -4 105 -13 123 -21z"/>
<path d="M1131 956 c-53 -19 -111 -74 -137 -130 -19 -40 -24 -68 -24 -132 0
-190 89 -287 265 -288 99 -1 165 28 207 90 49 72 47 78 -28 96 -65 16 -65 16
-74 -7 -26 -67 -128 -88 -180 -37 -16 16 -34 49 -40 73 -15 53 -7 142 14 175
50 75 163 77 202 3 l13 -27 61 13 c34 7 63 15 66 17 9 10 -16 58 -51 97 -22
24 -54 46 -82 55 -54 19 -163 20 -212 2z"/>
<path d="M1730 961 c-69 -21 -122 -66 -156 -131 -22 -44 -31 -184 -15 -243 19
-64 72 -130 127 -157 70 -34 198 -34 268 0 46 22 110 92 103 113 -2 6 -27 17
-57 27 l-55 16 -30 -34 c-59 -67 -176 -49 -211 33 -28 68 -35 65 182 65 l197
0 -7 71 c-11 120 -67 200 -163 235 -41 14 -143 17 -183 5z m171 -128 c11 -11
24 -36 29 -56 l8 -37 -125 0 -125 0 6 28 c4 15 23 42 42 61 34 31 40 33 91 29
36 -3 61 -11 74 -25z"/>
<path d="M2305 956 c-22 -7 -53 -21 -68 -30 -31 -21 -71 -80 -65 -98 3 -7 32
-17 67 -24 59 -10 63 -10 73 10 18 34 40 45 86 46 48 0 92 -33 92 -70 0 -26
-25 -36 -120 -50 -107 -15 -173 -50 -199 -104 -63 -130 35 -253 184 -230 46 6
135 56 135 74 0 21 18 9 30 -19 15 -37 53 -53 116 -49 l49 3 3 48 c2 28 -1 47
-7 47 -6 0 -20 9 -31 20 -18 18 -20 34 -20 158 0 154 -14 202 -66 239 -59 42
-176 55 -259 29z m185 -329 c0 -23 -7 -53 -16 -65 -36 -51 -127 -69 -164 -32
-47 47 -7 114 76 125 27 4 54 8 59 10 36 12 45 5 45 -38z"/>
<path d="M3038 960 c-39 -12 -86 -47 -93 -70 -9 -27 -25 -25 -25 3 -1 60 -8
67 -71 67 l-59 0 2 -272 3 -273 68 -3 67 -3 0 154 c0 187 4 209 45 253 27 28
40 34 74 34 98 0 111 -31 111 -265 l0 -175 70 0 70 0 0 208 c0 197 -1 209 -24
258 -19 41 -33 55 -68 73 -46 22 -118 27 -170 11z"/>
<path d="M4430 952 c-19 -9 -44 -31 -55 -49 -24 -38 -35 -41 -35 -10 -1 60 -8
67 -71 67 l-59 0 0 -275 0 -275 70 0 70 0 0 158 c0 131 3 164 19 198 22 48 68
74 130 74 l41 0 0 65 0 65 -37 0 c-21 0 -54 -8 -73 -18z"/>
<path d="M4576 938 c3 -13 51 -137 106 -277 108 -275 109 -282 58 -332 -24
-24 -37 -29 -80 -29 l-51 0 3 -57 3 -58 50 -3 c100 -6 172 34 216 121 22 42
239 631 239 647 0 6 -29 10 -69 10 l-69 0 -32 -102 c-17 -57 -45 -147 -62
-200 -16 -54 -31 -98 -33 -98 -2 0 -31 83 -65 186 -34 102 -64 192 -67 200 -4
10 -24 14 -80 14 -73 0 -74 -1 -67 -22z"/>
</g>
</svg>
