<svg width="34" height="40" viewBox="0 0 34 40" fill="none" xmlns="http://www.w3.org/2000/svg">
<path d="M27.1285 15C26.6593 15 26.257 15.4022 26.257 15.8715C26.257 21.0335 22.0335 25.257 16.8714 25.257C16.402 25.257 16 25.6592 16 26.1285C16 26.5978 16.402 27 16.8714 27C22.9719 27 28 22.0391 28 15.8715C28 15.3352 27.5977 15 27.1285 15Z" fill="#0D0701"/>
<path d="M18 5.87151C18 5.40223 17.5977 5 17.1286 5C11.0281 5 6 9.96089 6 16.1285C6 16.5978 6.40227 17 6.87133 17C7.34093 17 7.7432 16.5978 7.7432 16.1285C7.7432 10.9665 11.9665 6.74302 17.1286 6.74302C17.5977 6.74302 18 6.34078 18 5.87151Z" fill="#0D0701"/>
<path d="M20.366 20.3431H13.6993V18.75C13.6993 16.9657 15.2024 15.5 17.0327 15.5C18.8628 15.5 20.366 16.9657 20.366 18.75V20.3431ZM15.3988 12.25C15.3988 11.3578 16.1173 10.6569 17.0327 10.6569C17.9476 10.6569 18.6663 11.3578 18.6663 12.25C18.6663 13.1422 17.9476 13.8431 17.0327 13.8431C16.1173 13.8431 15.3988 13.1422 15.3988 12.25ZM22 21.1716V18.75C22 16.902 20.954 15.3088 19.3853 14.4804C19.9738 13.9069 20.3008 13.1422 20.3008 12.25C20.3008 10.4657 18.7974 9 16.9674 9C15.1373 9 13.6342 10.4657 13.6342 12.25C13.6342 13.1422 13.9607 13.9069 14.549 14.4804C12.9805 15.3088 12 16.902 12 18.75V21.1716C12 21.6176 12.3924 22 12.8497 22H21.1504C21.6731 21.9363 22 21.6176 22 21.1716Z" fill="#0D0701"/>
<path d="M16.9671 29.9511C9.11525 29.9511 2.64945 23.6215 2.64945 15.7912C2.64945 7.96085 9.04957 1.63132 16.9671 1.63132C24.8848 1.63132 31.2846 7.96085 31.2846 15.7912C31.2846 23.6215 24.8189 29.9511 16.9671 29.9511ZM19.4738 33.279H14.4598V31.3866C16.1096 31.6476 17.8248 31.6476 19.4738 31.3866V33.279ZM16.9671 0C8.12599 0 1 7.11256 1 15.7912C1 23.0343 6.01436 29.2333 12.7444 31.0604V34.1272C12.7444 34.584 13.1403 34.9755 13.602 34.9755H14.4598V39.1517C14.4598 39.6085 14.8555 40 15.3177 40C15.7793 40 16.1753 39.6085 16.1753 39.1517V34.9755H17.8248V39.1517C17.8248 39.6085 18.2207 40 18.6823 40C19.1445 40 19.5403 39.6085 19.5403 39.1517V34.9755H20.398C20.8598 34.9755 21.2557 34.584 21.2557 34.1272V31.0604C28.0514 29.2333 33 23.0995 33 15.7912C32.9341 7.11256 25.8084 0 16.9671 0Z" fill="#0D0701"/>
<path d="M0 31H2V33H0V31Z" fill="#0D0701"/>
<path d="M3 31H5V33H3V31Z" fill="#0D0701"/>
<path d="M7 31H9V33H7V31Z" fill="#0D0701"/>
<path d="M26 31H28V33H26V31Z" fill="#0D0701"/>
<path d="M29 31H31V33H29V31Z" fill="#0D0701"/>
<path d="M32 31H34V33H32V31Z" fill="#0D0701"/>
</svg>
