<svg width="41" height="40" viewBox="0 0 41 40" fill="none" xmlns="http://www.w3.org/2000/svg">
<path d="M37.7058 14.7676C36.7683 14.7676 35.8309 15.0979 35.1609 15.8245L32.6834 17.2777H28.1959V15.6263C28.1959 11.9273 24.7803 8.88889 20.4942 8.88889C16.2073 8.88889 12.7917 11.8613 12.7917 15.5603C12.7917 16.0226 13.1943 16.419 13.663 16.419C14.1317 16.419 14.5329 16.0226 14.5329 15.5603C14.5329 12.786 17.2123 10.5402 20.4942 10.5402C23.7753 10.5402 26.4547 12.786 26.4547 15.5603V17.8721C25.651 18.5327 25.3828 19.6556 25.7178 20.5803H15.2029C15.2698 20.3161 15.3367 20.0519 15.3367 19.7216C15.3367 18.3345 14.1986 17.2116 12.7917 17.2116H8.37177L5.89369 15.7584C5.22434 15.0979 4.28685 14.7016 3.28184 14.7016C1.40621 14.7676 0 16.2208 0 18.0703V28.1765C0 30.0259 1.54061 31.5452 3.41557 31.5452H8.23738L13.7967 39.4716C14.0642 39.8679 14.6005 39.9339 15.0024 39.6697C15.4042 39.4055 15.4711 38.8771 15.2029 38.4808L9.37615 30.2241C9.24241 30.0259 8.97493 29.8938 8.70613 29.8938H3.41557C2.47809 29.8938 1.74121 29.1673 1.74121 28.2425V18.1364C1.74121 17.2116 2.47809 16.419 3.48311 16.485C3.95185 16.485 4.4206 16.6832 4.68807 17.0795C4.7556 17.1456 4.82181 17.2116 4.88934 17.2777L7.70243 18.929C7.83617 18.995 7.96991 19.0611 8.17118 19.0611H12.7917C13.2605 19.0611 13.663 19.4574 13.663 19.9198C13.663 20.3822 13.2605 20.7785 12.7917 20.7785C10.9836 20.7785 9.5774 20.7785 7.70243 20.7785C7.56803 20.7785 7.36742 20.7124 7.23369 20.6464L6.42997 20.184C6.16183 20.0519 5.82682 20.0519 5.55868 20.184C5.29121 20.3161 5.15682 20.6464 5.15682 20.9106V27.5159C5.15682 27.9783 5.55868 28.3746 6.02743 28.3746H9.44368C9.64428 28.3746 9.84488 28.4407 9.97928 28.5728L16.2748 37.2918C16.5423 37.6881 17.0786 37.7542 17.4798 37.49C17.8823 37.2258 17.9485 36.6973 17.6811 36.301C10.8499 26.7893 11.3186 27.3838 11.1849 27.2517C10.7162 26.7893 10.0462 26.5251 9.37615 26.5251H6.83115V22.1656C7.09928 22.2317 7.36743 22.2977 7.70243 22.2977C9.30926 22.2977 18.0161 22.2977 19.6235 22.2977V39.1413C19.6235 39.6037 20.0254 40 20.4942 40C20.9629 40 21.3641 39.6037 21.3641 39.1413V22.2977C22.771 22.2977 31.879 22.2977 33.2859 22.2977C33.554 22.2977 33.8883 22.2317 34.1565 22.1656V26.5251H31.6115C30.9415 26.5251 30.2722 26.7893 29.8034 27.2517C29.7365 27.3178 30.1378 26.7893 23.3741 36.1029C23.106 36.4992 23.1729 37.0276 23.5747 37.2918C23.9766 37.556 24.5122 37.49 24.7804 37.0937L31.0753 28.3746C31.2103 28.2425 31.4102 28.1765 31.6115 28.1765H35.0271C35.4959 28.1765 35.8984 27.7801 35.8984 27.3178V20.7124C35.8984 20.3822 35.764 20.118 35.4959 19.9858C35.2284 19.8537 34.8934 19.8537 34.6259 19.9858L33.8215 20.4482C33.6878 20.5143 33.554 20.5803 33.3528 20.5803C31.4103 20.5803 30.0716 20.5803 28.2628 20.5803C27.7941 20.5803 27.3922 20.184 27.3922 19.7216C27.3922 19.2593 27.7941 18.8629 28.2628 18.8629H32.884C33.0177 18.8629 33.219 18.7969 33.3528 18.7308L36.1658 17.0795C36.2334 17.0134 36.2996 16.9474 36.3671 16.8813C36.7021 16.485 37.1709 16.2869 37.7058 16.2869C38.644 16.3529 39.3802 17.0795 39.3802 17.9382V28.0443C39.3802 28.9691 38.644 29.6957 37.7058 29.6957H32.4153C32.1478 29.6957 31.879 29.8278 31.7452 30.0259L25.9184 38.2826C25.651 38.6789 25.7178 39.2074 26.1197 39.4716C26.5216 39.7358 27.0572 39.6697 27.3247 39.2734L32.884 31.347H37.5721C39.4477 31.347 40.9877 29.8278 40.9877 27.9783V18.1364C40.9877 16.2869 39.5814 14.8337 37.7058 14.7676Z" fill="#0D0701"/>
<path d="M36.791 7.13709C38.1681 7.13709 39.2826 8.25206 39.2826 9.62937C39.2826 11.0067 38.1681 12.1217 36.791 12.1217C35.4132 12.1217 34.298 11.0067 34.298 9.62937C34.298 8.25206 35.4132 7.13709 36.791 7.13709ZM36.791 13.8269C39.0862 13.8269 40.9878 11.9249 40.9878 9.62937C40.9878 7.33385 39.0862 5.43184 36.791 5.43184C34.4944 5.43184 32.5928 7.33385 32.5928 9.62937C32.5928 11.9249 34.4944 13.8269 36.791 13.8269Z" fill="#0D0701"/>
<path d="M4.19818 7.13709C5.57531 7.13709 6.68984 8.25206 6.68984 9.62937C6.68984 11.0067 5.57531 12.1217 4.19818 12.1217C2.8204 12.1217 1.70519 11.0067 1.70519 9.62937C1.70519 8.25206 2.8204 7.13709 4.19818 7.13709ZM4.19818 13.8269C6.4934 13.8269 8.39506 11.9249 8.39506 9.62937C8.39506 7.33385 6.4934 5.43184 4.19818 5.43184C1.90231 5.43184 0 7.33385 0 9.62937C0 11.9249 1.90231 13.8269 4.19818 13.8269Z" fill="#0D0701"/>
<path d="M20.4947 1.70496C21.8717 1.70496 22.9868 2.81993 22.9868 4.19724C22.9868 5.57456 21.8717 6.68953 20.4947 6.68953C19.1171 6.68953 18.002 5.57456 18.002 4.19724C18.002 2.81993 19.1171 1.70496 20.4947 1.70496ZM20.4947 8.39478C22.7898 8.39478 24.6919 6.49277 24.6919 4.19724C24.6919 1.90172 22.7898 -0.000286102 20.4947 -0.000286102C18.199 -0.000286102 16.2969 1.90172 16.2969 4.19724C16.2969 6.49277 18.199 8.39478 20.4947 8.39478Z" fill="#0D0701"/>
</svg>
